<svg width="1009" height="696" viewBox="0 0 1009 696" fill="none" xmlns="http://www.w3.org/2000/svg">
<rect width="1009" height="696" fill="none"/>
<path d="M34.632 586.648C34.632 584.6 34.632 582.04 34.632 578.968C34.632 575.555 34.8027 570.776 35.144 564.632C35.8267 558.488 36.68 550.296 37.704 540.056C39.0693 529.816 40.776 516.675 42.824 500.632L74.056 247.704H18.248C13.128 247.704 8.86133 245.997 5.448 242.584C2.376 238.829 1.352 233.368 2.376 226.2L6.984 185.752L86.344 173.976L126.28 18.84C127.987 13.0373 130.717 8.59998 134.472 5.52795C138.568 2.11462 143.517 0.407959 149.32 0.407959H202.568L180.552 175H314.184L305.992 247.704H171.848L141.128 495.512C139.421 509.507 138.056 520.771 137.032 529.304C136.008 537.837 135.155 544.664 134.472 549.784C134.131 554.563 133.789 557.976 133.448 560.024C133.448 562.072 133.448 563.608 133.448 564.632C133.448 580.675 137.373 592.792 145.224 600.984C153.075 609.176 163.485 613.272 176.456 613.272C184.989 613.272 192.328 612.077 198.472 609.688C204.957 607.299 210.589 604.739 215.368 602.008C220.147 598.936 224.072 596.205 227.144 593.816C230.557 591.427 233.629 590.232 236.36 590.232C239.432 590.232 241.821 591.085 243.528 592.792C245.235 594.157 246.941 596.547 248.648 599.96L269.64 648.088C252.232 663.107 232.776 674.712 211.272 682.904C189.768 691.096 168.093 695.192 146.248 695.192C112.115 695.192 85.1493 685.976 65.352 667.544C45.5547 648.771 35.3147 621.805 34.632 586.648Z" fill="white"/>
<path d="M1008.69 174.808L791.088 695H714.8C705.584 695 700.293 688.685 698.928 676.056L639.024 337.112C638 331.309 637.147 325.677 636.464 320.216C636.123 314.413 635.611 308.611 634.928 302.808C633.221 308.611 631.173 314.584 628.784 320.728C626.736 326.531 624.517 332.333 622.128 338.136L478.768 676.056C473.648 688.685 466.139 695 456.24 695H383.024L292.4 174.808H367.152C374.32 174.808 380.123 176.685 384.56 180.44C389.339 184.195 392.24 188.973 393.264 194.776L436.784 514.264C437.808 527.235 438.491 539.693 438.832 551.64C439.515 563.587 440.027 575.533 440.368 587.48C444.805 575.533 449.413 563.587 454.192 551.64C458.971 539.693 463.749 527.235 468.528 514.264L603.696 192.728C605.744 186.925 609.328 182.317 614.448 178.904C619.568 175.149 625.2 173.272 631.344 173.272H673.328C680.155 173.272 685.616 175.149 689.712 178.904C694.149 182.317 696.709 186.925 697.392 192.728L752.176 514.264C753.883 526.893 755.419 539.352 756.784 551.64C758.491 563.928 759.856 576.045 760.88 587.992C764.293 576.045 767.877 564.099 771.632 552.152C775.387 539.864 779.483 527.235 783.92 514.264L907.824 194.776C909.872 188.973 913.456 184.195 918.576 180.44C923.696 176.685 929.499 174.808 935.984 174.808H1008.69Z" fill="white"/>
</svg>
